<?xml version="1.0" standalone="no"?>
<!DOCTYPE svg PUBLIC "-//W3C//DTD SVG 20010904//EN"
 "http://www.w3.org/TR/2001/REC-SVG-20010904/DTD/svg10.dtd">
<svg version="1.0" xmlns="http://www.w3.org/2000/svg"
 width="70.000000pt" height="70.000000pt" viewBox="0 0 70.000000 70.000000"
 preserveAspectRatio="xMidYMid meet">
<metadata>
Created by potrace 1.11, written by Peter Selinger 2001-2013
</metadata>
<g transform="translate(0.000000,70.000000) scale(0.100000,-0.100000)"
fill="#000000" stroke="none">
<path d="M341 648 c-1 -15 -12 -18 -68 -19 -121 -2 -28 -17 110 -18 116 -1
146 -8 117 -26 -6 -4 -7 -11 -4 -17 4 -6 13 0 21 16 8 15 12 30 9 34 -4 3 -44
8 -91 10 -67 4 -85 8 -88 21 -4 14 -5 14 -6 -1z"/>
<path d="M191 594 c0 -11 3 -14 6 -6 3 7 2 16 -1 19 -3 4 -6 -2 -5 -13z"/>
<path d="M240 545 c-18 -19 -31 -38 -27 -41 7 -7 38 26 58 59 15 25 7 21 -31
-18z"/>
<path d="M432 535 c21 -32 38 -45 38 -27 -1 9 -47 62 -55 62 -3 0 5 -16 17
-35z"/>
<path d="M335 520 c-27 -7 -25 -8 18 -9 26 0 47 4 47 9 0 11 -21 11 -65 0z"/>
<path d="M342 473 c-2 -30 -5 -33 -34 -33 -54 0 -26 -7 50 -13 41 -3 72 -1 72
4 0 5 -18 9 -39 9 -37 0 -40 2 -44 33 l-4 32 -1 -32z"/>
<path d="M258 358 c17 -6 32 -17 32 -24 0 -7 -15 -15 -32 -17 l-33 -4 33 -1
c29 -2 33 -5 30 -24 -2 -19 -10 -24 -40 -26 l-37 -3 -4 53 c-2 38 -4 27 -6
-37 -1 -50 -6 -112 -10 -140 -11 -61 -7 -67 24 -53 31 14 33 28 3 20 -20 -5
-21 -3 -15 43 4 26 7 61 7 76 0 27 3 29 39 29 46 0 54 9 54 62 0 44 -14 58
-53 57 -22 -1 -22 -2 8 -11z"/>
<path d="M405 360 c-15 -6 -6 -9 33 -9 l52 -1 0 -44 0 -43 -52 3 -53 3 53 -10
52 -11 0 -68 c0 -60 -2 -68 -16 -63 -14 5 -14 3 -3 -16 26 -41 34 -16 37 117
l3 132 -26 10 c-31 12 -53 12 -80 0z"/>
<path d="M367 311 c-4 -24 -5 -46 -2 -49 11 -11 16 8 13 49 l-3 44 -8 -44z"/>
<path d="M408 303 c12 -2 32 -2 45 0 12 2 2 4 -23 4 -25 0 -35 -2 -22 -4z"/>
<path d="M319 215 c-4 -28 4 -101 12 -109 5 -6 6 12 2 42 -3 29 -3 52 1 52 4
0 19 -13 33 -30 13 -16 30 -30 36 -30 6 0 -1 13 -16 28 -32 33 -33 39 -9 44 9
3 0 6 -20 9 -23 3 -39 1 -39 -6z"/>
<path d="M285 170 c-10 -11 -16 -22 -13 -25 3 -3 13 4 23 15 10 11 16 22 13
25 -3 3 -13 -4 -23 -15z"/>
</g>
</svg>
